<?xml version="1.0" encoding="utf-8"?>
<!-- Generator: Adobe Illustrator 18.1.1, SVG Export Plug-In . SVG Version: 6.00 Build 0)  -->
<!DOCTYPE svg PUBLIC "-//W3C//DTD SVG 1.1//EN" "http://www.w3.org/Graphics/SVG/1.1/DTD/svg11.dtd">
<svg version="1.1" id="Layer_1" xmlns="http://www.w3.org/2000/svg" xmlns:xlink="http://www.w3.org/1999/xlink" x="0px" y="0px"
	 viewBox="0 0 35 13.7" enable-background="new 0 0 35 13.7" xml:space="preserve">
<g>
	<g>
		<g>
			<g>
				<polygon fill="#FFFFFF" points="24.9,10 24.9,13.7 28.6,13.7 				"/>
			</g>
			<g>
				<path fill="#FFFFFF" d="M35,13.7l-4.5-4.5C32.9,9,34.9,7,34.9,4.6c0-2.5-2-4.6-4.6-4.6h-5.3v2.3h5.3c1.3,0,2.3,1,2.3,2.3
					c0,1.3-1,2.3-2.3,2.3h-5.3l6.8,6.8H35z"/>
			</g>
		</g>
	</g>
	<g>
		<g>
			<g>
				<polygon fill="#FFFFFF" points="0,3.6 0,0 3.6,0 				"/>
			</g>
			<g>
				<path fill="#FFFFFF" d="M10.1,0L5.5,4.5C8,4.6,9.9,6.6,9.9,9.1c0,2.5-2,4.6-4.6,4.6H0v-2.3h5.3c1.3,0,2.3-1,2.3-2.3
					c0-1.3-1-2.3-2.3-2.3H0L6.8,0H10.1z"/>
			</g>
		</g>
	</g>
	<path fill="#FFFFFF" d="M15.8,0h-3.6v2.3h3.6c2.5,0,4.5,2,4.5,4.5c0,2.5-2,4.5-4.5,4.5h-1.3V6.8h-2.3v6.8h3.6
		c3.8,0,6.8-3.1,6.8-6.8C22.7,3.1,19.6,0,15.8,0z"/>
</g>
</svg>
