<?xml version="1.0" encoding="utf-8"?>
<!-- Generator: Adobe Illustrator 19.1.0, SVG Export Plug-In . SVG Version: 6.00 Build 0)  -->
<!DOCTYPE svg PUBLIC "-//W3C//DTD SVG 1.1//EN" "http://www.w3.org/Graphics/SVG/1.1/DTD/svg11.dtd">
<svg version="1.1" id="Layer_1" xmlns="http://www.w3.org/2000/svg" xmlns:xlink="http://www.w3.org/1999/xlink" x="0px" y="0px"
	 viewBox="0 0 150 60" enable-background="new 0 0 150 60" xml:space="preserve">
<g>
	<polygon fill="#75E500" points="-0.1,16.2 -0.1,0.6 15.5,0.6 	"/>
	<g>
		<g>
			<polygon fill="#75E500" points="106.8,43.8 106.8,59.4 122.4,59.4 			"/>
			<path fill="#FFFFFF" d="M150.1,59.4l-19.5-19.5c10.5-0.4,18.9-9,18.9-19.6c0-10.8-8.8-19.6-19.6-19.6h-23v9.8h23
				c5.4,0,9.8,4.4,9.8,9.8c0,5.4-4.4,9.8-9.8,9.8h-23l29.4,29.4H150.1z"/>
			<path fill="#FFFFFF" d="M43.2,0.6L23.6,20.2c10.5,0.4,18.9,9,18.9,19.6c0,10.8-8.8,19.6-19.6,19.6h-23v-9.8h23
				c5.4,0,9.8-4.4,9.8-9.8c0-5.4-4.4-9.8-9.8-9.8h-23L29.2,0.6H43.2z"/>
			<path fill="#FFFFFF" d="M69.7,0.7H54v9.8h15.7c10.8,0,19.5,8.7,19.5,19.5c0,10.8-8.7,19.5-19.5,19.5h-7.4V30.2h-9.8l0,29.1h17.2
				C85.9,59.4,99,46.2,99,30C99,13.9,85.9,0.7,69.7,0.7z"/>
		</g>
	</g>
</g>
</svg>
